<mxfile host="app.diagrams.net" modified="2024-01-03T01:02:24.626Z" agent="Mozilla/5.0 (X11; Linux x86_64) AppleWebKit/537.36 (KHTML, like Gecko) Chrome/119.0.0.0 Safari/537.36" etag="H-Z0BeCCGHiXicu8R_QQ" version="22.1.16" type="github">
  <diagram name="PÃ¡gina-1" id="qlgsNpm_XXGKbyuJ5qQu">
    <mxGraphModel dx="1434" dy="759" grid="1" gridSize="10" guides="1" tooltips="1" connect="1" arrows="1" fold="1" page="1" pageScale="1" pageWidth="827" pageHeight="1169" math="0" shadow="0">
      <root>
        <mxCell id="0" />
        <mxCell id="1" parent="0" />
        <mxCell id="Yw4iY7qk29PIz1SP-F4a-1" value="" style="rounded=0;whiteSpace=wrap;html=1;" vertex="1" parent="1">
          <mxGeometry x="4" y="720" width="820" height="310" as="geometry" />
        </mxCell>
        <mxCell id="Yw4iY7qk29PIz1SP-F4a-2" value="" style="rounded=1;whiteSpace=wrap;html=1;" vertex="1" parent="1">
          <mxGeometry x="14" y="780" width="400" height="210" as="geometry" />
        </mxCell>
        <mxCell id="Yw4iY7qk29PIz1SP-F4a-3" value="" style="rounded=1;whiteSpace=wrap;html=1;fontStyle=1" vertex="1" parent="1">
          <mxGeometry x="425" y="780" width="390" height="210" as="geometry" />
        </mxCell>
        <mxCell id="Yw4iY7qk29PIz1SP-F4a-4" value="BARRA DE HOME" style="rounded=0;whiteSpace=wrap;html=1;" vertex="1" parent="1">
          <mxGeometry x="10" y="10" width="810" height="80" as="geometry" />
        </mxCell>
        <mxCell id="Yw4iY7qk29PIz1SP-F4a-6" value="BARRA DE PUBLICIDAD" style="rounded=0;whiteSpace=wrap;html=1;" vertex="1" parent="1">
          <mxGeometry x="14" y="730" width="190" height="20" as="geometry" />
        </mxCell>
        <mxCell id="Yw4iY7qk29PIz1SP-F4a-7" value="GRATIS AHORA" style="rounded=0;whiteSpace=wrap;html=1;" vertex="1" parent="1">
          <mxGeometry x="24" y="950" width="380" height="20" as="geometry" />
        </mxCell>
        <mxCell id="Yw4iY7qk29PIz1SP-F4a-8" value="JUEGO MISTERIOSO" style="rounded=0;whiteSpace=wrap;html=1;" vertex="1" parent="1">
          <mxGeometry x="440" y="950" width="360" height="20" as="geometry" />
        </mxCell>
        <mxCell id="Yw4iY7qk29PIz1SP-F4a-9" value="Carrito" style="ellipse;whiteSpace=wrap;html=1;aspect=fixed;" vertex="1" parent="1">
          <mxGeometry x="770" y="30" width="40" height="40" as="geometry" />
        </mxCell>
        <mxCell id="Yw4iY7qk29PIz1SP-F4a-11" value="VER MAS" style="rounded=0;whiteSpace=wrap;html=1;" vertex="1" parent="1">
          <mxGeometry x="745" y="730" width="70" height="20" as="geometry" />
        </mxCell>
        <mxCell id="Yw4iY7qk29PIz1SP-F4a-12" value="SE DESBLOQUEARA EN 20:00:00" style="rounded=0;whiteSpace=wrap;html=1;" vertex="1" parent="1">
          <mxGeometry x="530" y="1000" width="270" height="20" as="geometry" />
        </mxCell>
        <mxCell id="Yw4iY7qk29PIz1SP-F4a-13" value="" style="rounded=0;whiteSpace=wrap;html=1;" vertex="1" parent="1">
          <mxGeometry x="30" y="790" width="370" height="150" as="geometry" />
        </mxCell>
        <mxCell id="Yw4iY7qk29PIz1SP-F4a-14" value="" style="rounded=0;whiteSpace=wrap;html=1;" vertex="1" parent="1">
          <mxGeometry x="440" y="790" width="360" height="150" as="geometry" />
        </mxCell>
        <mxCell id="Yw4iY7qk29PIz1SP-F4a-15" value="" style="endArrow=none;html=1;rounded=0;exitX=0;exitY=1;exitDx=0;exitDy=0;entryX=1;entryY=0;entryDx=0;entryDy=0;" edge="1" parent="1" source="Yw4iY7qk29PIz1SP-F4a-13" target="Yw4iY7qk29PIz1SP-F4a-13">
          <mxGeometry width="50" height="50" relative="1" as="geometry">
            <mxPoint x="390" y="860" as="sourcePoint" />
            <mxPoint x="440" y="810" as="targetPoint" />
            <Array as="points" />
          </mxGeometry>
        </mxCell>
        <mxCell id="Yw4iY7qk29PIz1SP-F4a-16" style="edgeStyle=orthogonalEdgeStyle;rounded=0;orthogonalLoop=1;jettySize=auto;html=1;exitX=0;exitY=1;exitDx=0;exitDy=0;" edge="1" parent="1" source="Yw4iY7qk29PIz1SP-F4a-13" target="Yw4iY7qk29PIz1SP-F4a-13">
          <mxGeometry relative="1" as="geometry" />
        </mxCell>
        <mxCell id="Yw4iY7qk29PIz1SP-F4a-18" value="" style="endArrow=none;html=1;rounded=0;entryX=1;entryY=0;entryDx=0;entryDy=0;exitX=0;exitY=1;exitDx=0;exitDy=0;" edge="1" parent="1" source="Yw4iY7qk29PIz1SP-F4a-14" target="Yw4iY7qk29PIz1SP-F4a-14">
          <mxGeometry width="50" height="50" relative="1" as="geometry">
            <mxPoint x="390" y="860" as="sourcePoint" />
            <mxPoint x="440" y="810" as="targetPoint" />
          </mxGeometry>
        </mxCell>
        <mxCell id="Yw4iY7qk29PIz1SP-F4a-19" value="" style="endArrow=none;html=1;rounded=0;exitX=0;exitY=0;exitDx=0;exitDy=0;entryX=1;entryY=1;entryDx=0;entryDy=0;" edge="1" parent="1" source="Yw4iY7qk29PIz1SP-F4a-13" target="Yw4iY7qk29PIz1SP-F4a-13">
          <mxGeometry width="50" height="50" relative="1" as="geometry">
            <mxPoint x="390" y="860" as="sourcePoint" />
            <mxPoint x="440" y="810" as="targetPoint" />
          </mxGeometry>
        </mxCell>
      </root>
    </mxGraphModel>
  </diagram>
</mxfile>
